<mxfile host="app.diagrams.net" modified="2023-10-19T14:09:20.966Z" agent="Mozilla/5.0 (Windows NT 10.0; Win64; x64) AppleWebKit/537.36 (KHTML, like Gecko) Chrome/118.0.0.0 Safari/537.36" etag="nE7f3G8hULu1QAIgTpst" version="22.0.4" type="github">
  <diagram name="Страница — 1" id="VarxODo1hb2kQh33VH42">
    <mxGraphModel dx="500" dy="1442" grid="1" gridSize="10" guides="1" tooltips="1" connect="1" arrows="1" fold="1" page="1" pageScale="1" pageWidth="827" pageHeight="1169" math="0" shadow="0">
      <root>
        <mxCell id="0" />
        <mxCell id="1" parent="0" />
        <mxCell id="hTDoVyARFCzhJ06bmdy8-2" value="" style="swimlane;startSize=0;" vertex="1" parent="1">
          <mxGeometry x="20" y="10" width="800" height="510" as="geometry" />
        </mxCell>
        <mxCell id="hTDoVyARFCzhJ06bmdy8-4" value="" style="rounded=0;whiteSpace=wrap;html=1;" vertex="1" parent="hTDoVyARFCzhJ06bmdy8-2">
          <mxGeometry x="120" y="25" width="110" height="60" as="geometry" />
        </mxCell>
        <mxCell id="hTDoVyARFCzhJ06bmdy8-6" value="&lt;div&gt;Open the ACME&amp;nbsp;&lt;/div&gt;&lt;div&gt;System 1 Web&amp;nbsp;&lt;/div&gt;&lt;div&gt;Application&amp;nbsp;&lt;/div&gt;" style="text;html=1;strokeColor=none;fillColor=none;align=center;verticalAlign=middle;whiteSpace=wrap;rounded=0;" vertex="1" parent="hTDoVyARFCzhJ06bmdy8-2">
          <mxGeometry x="120" y="40" width="110" height="30" as="geometry" />
        </mxCell>
        <mxCell id="hTDoVyARFCzhJ06bmdy8-5" value="Horizontal Container" style="swimlane;horizontal=0;whiteSpace=wrap;html=1;" vertex="1" parent="1">
          <mxGeometry x="20" y="10" width="800" height="225" as="geometry" />
        </mxCell>
        <mxCell id="hTDoVyARFCzhJ06bmdy8-13" value="" style="rounded=0;whiteSpace=wrap;html=1;" vertex="1" parent="hTDoVyARFCzhJ06bmdy8-5">
          <mxGeometry x="261.5" y="25" width="110" height="60" as="geometry" />
        </mxCell>
        <mxCell id="hTDoVyARFCzhJ06bmdy8-1" value="" style="ellipse;whiteSpace=wrap;html=1;aspect=fixed;" vertex="1" parent="hTDoVyARFCzhJ06bmdy8-5">
          <mxGeometry x="40" y="30" width="50" height="50" as="geometry" />
        </mxCell>
        <mxCell id="hTDoVyARFCzhJ06bmdy8-9" value="&lt;div&gt;Log in to System 1&lt;/div&gt;" style="text;html=1;strokeColor=none;fillColor=none;align=center;verticalAlign=middle;whiteSpace=wrap;rounded=0;rotation=0;" vertex="1" parent="hTDoVyARFCzhJ06bmdy8-5">
          <mxGeometry x="261" y="40" width="110" height="30" as="geometry" />
        </mxCell>
        <mxCell id="hTDoVyARFCzhJ06bmdy8-3" value="" style="endArrow=classic;html=1;rounded=0;exitX=1;exitY=0.5;exitDx=0;exitDy=0;" edge="1" parent="1" source="hTDoVyARFCzhJ06bmdy8-1" target="hTDoVyARFCzhJ06bmdy8-4">
          <mxGeometry width="50" height="50" relative="1" as="geometry">
            <mxPoint x="201.60000000000002" y="101.98999999999998" as="sourcePoint" />
            <mxPoint x="130" y="59.998038976857316" as="targetPoint" />
            <Array as="points" />
          </mxGeometry>
        </mxCell>
        <mxCell id="hTDoVyARFCzhJ06bmdy8-14" value="&lt;div&gt;email and&amp;nbsp;&lt;/div&gt;&lt;div&gt;password&lt;/div&gt;" style="text;html=1;strokeColor=none;fillColor=none;align=center;verticalAlign=middle;whiteSpace=wrap;rounded=0;" vertex="1" parent="1">
          <mxGeometry x="360" y="-50" width="60" height="30" as="geometry" />
        </mxCell>
        <mxCell id="hTDoVyARFCzhJ06bmdy8-15" value="" style="endArrow=none;dashed=1;html=1;dashPattern=1 3;strokeWidth=2;rounded=0;" edge="1" parent="1">
          <mxGeometry width="50" height="50" relative="1" as="geometry">
            <mxPoint x="380" y="40" as="sourcePoint" />
            <mxPoint x="390" y="-20" as="targetPoint" />
          </mxGeometry>
        </mxCell>
      </root>
    </mxGraphModel>
  </diagram>
</mxfile>
